<svg width="496" height="566" viewBox="0 0 496 566" fill="none" xmlns="http://www.w3.org/2000/svg">
<g clip-path="url(#clip0_1_3)">
<path d="M495.93 316.33V414.23C495.93 417.89 494.967 421.485 493.138 424.655C491.309 427.825 488.679 430.458 485.51 432.29L255.51 565.07C254.749 565.514 253.883 565.749 253.002 565.751C252.12 565.754 251.254 565.523 250.491 565.082C249.727 564.641 249.094 564.007 248.655 563.243C248.216 562.478 247.986 561.611 247.99 560.73V460C247.991 458.459 248.397 456.946 249.167 455.612C249.938 454.278 251.046 453.17 252.38 452.4L389 373.46C389.783 373.008 390.433 372.358 390.885 371.575C391.337 370.792 391.575 369.904 391.575 369C391.575 368.096 391.337 367.208 390.885 366.425C390.433 365.642 389.783 364.992 389 364.54L254 286.54C253.375 286.194 252.854 285.687 252.491 285.072C252.128 284.456 251.937 283.755 251.937 283.04C251.937 282.325 252.128 281.624 252.491 281.008C252.854 280.393 253.375 279.886 254 279.54L343.57 227.83C344.664 227.201 345.903 226.87 347.165 226.87C348.427 226.87 349.666 227.201 350.76 227.83L491.95 309.33C493.173 310.041 494.186 311.063 494.885 312.293C495.584 313.522 495.945 314.916 495.93 316.33Z" fill="#3CAB91"/>
<path d="M488.3 144.34L400.7 194.92C399.499 195.612 398.137 195.977 396.75 195.977C395.363 195.977 394.001 195.612 392.8 194.92L251.71 113.46C250.572 112.806 249.282 112.462 247.97 112.462C246.658 112.462 245.368 112.806 244.23 113.46L204.14 136.6C203.557 136.938 203.073 137.424 202.736 138.009C202.399 138.593 202.222 139.256 202.222 139.93C202.222 140.604 202.399 141.267 202.736 141.851C203.073 142.436 203.557 142.922 204.14 143.26L291.53 193.72C292.155 194.066 292.676 194.573 293.039 195.188C293.402 195.804 293.594 196.505 293.594 197.22C293.594 197.935 293.402 198.636 293.039 199.252C292.676 199.867 292.155 200.374 291.53 200.72L202.32 252.23C201.119 252.918 199.759 253.279 198.375 253.279C196.991 253.279 195.631 252.918 194.43 252.23L7.65001 144.34C6.87767 143.893 6.23647 143.25 5.79072 142.477C5.34496 141.704 5.11032 140.827 5.11032 139.935C5.11032 139.043 5.34496 138.166 5.79072 137.393C6.23647 136.62 6.87767 135.977 7.65001 135.53L237.53 2.79001C240.7 0.961991 244.295 -0.000274658 247.955 -0.000274658C251.615 -0.000274658 255.21 0.961991 258.38 2.79001L488.3 135.53C489.072 135.977 489.714 136.62 490.159 137.393C490.605 138.166 490.84 139.043 490.84 139.935C490.84 140.827 490.605 141.704 490.159 142.477C489.714 143.25 489.072 143.893 488.3 144.34Z" fill="#3CAB91"/>
<path d="M198.37 430.34V531.86C198.37 532.766 198.132 533.656 197.679 534.44C197.226 535.225 196.575 535.877 195.791 536.33C195.006 536.783 194.116 537.021 193.21 537.021C192.304 537.021 191.415 536.783 190.63 536.33L10.43 432.33C7.2531 430.497 4.61594 427.858 2.78469 424.68C0.953431 421.503 -0.00710901 417.898 8.75417e-06 414.23V206.11C-0.000768111 205.206 0.236682 204.319 0.688424 203.536C1.14017 202.753 1.79023 202.104 2.5731 201.652C3.35596 201.201 4.24396 200.964 5.14757 200.966C6.05118 200.967 6.93847 201.206 7.72001 201.66L94.52 251.77C95.9373 252.587 97.1143 253.763 97.9324 255.18C98.7505 256.597 99.1808 258.204 99.18 259.84V363.76C99.1806 365.353 99.6005 366.918 100.397 368.298C101.194 369.678 102.34 370.823 103.72 371.62L194.85 424.23C195.921 424.85 196.811 425.741 197.429 426.813C198.047 427.886 198.371 429.102 198.37 430.34Z" fill="#3CAB91"/>
</g>
<defs>
<clipPath id="clip0_1_3">
<rect width="495.93" height="565.75" fill="white"/>
</clipPath>
</defs>
</svg>
